<svg xmlns="http://www.w3.org/2000/svg" viewBox="0 0 125.68 134.56"><defs><style>.a{fill:#fcd700;}</style></defs><path class="a" d="M15.62,7.81A7.81,7.81,0,1,1,7.81,0a7.81,7.81,0,0,1,7.81,7.81"/><path class="a" d="M37.63,7.81A7.81,7.81,0,1,1,29.82,0a7.81,7.81,0,0,1,7.81,7.81"/><path class="a" d="M59.64,7.81A7.81,7.81,0,1,1,51.83,0a7.81,7.81,0,0,1,7.81,7.81"/><path class="a" d="M15.62,31.6a7.81,7.81,0,1,1-7.81-7.81,7.81,7.81,0,0,1,7.81,7.81"/><path class="a" d="M37.63,31.6a7.81,7.81,0,1,1-7.81-7.81,7.81,7.81,0,0,1,7.81,7.81"/><path class="a" d="M59.64,31.6a7.81,7.81,0,1,1-7.81-7.81,7.81,7.81,0,0,1,7.81,7.81"/><path class="a" d="M15.62,55.38a7.81,7.81,0,1,1-7.81-7.81,7.81,7.81,0,0,1,7.81,7.81"/><path class="a" d="M37.63,55.38a7.81,7.81,0,1,1-7.81-7.81,7.81,7.81,0,0,1,7.81,7.81"/><path class="a" d="M59.64,55.38a7.81,7.81,0,1,1-7.81-7.81,7.8,7.8,0,0,1,7.81,7.81"/><path class="a" d="M81.65,55.38a7.81,7.81,0,1,1-7.81-7.81,7.8,7.8,0,0,1,7.81,7.81"/><path class="a" d="M103.67,55.38a7.82,7.82,0,1,1-7.82-7.81,7.81,7.81,0,0,1,7.82,7.81"/><path class="a" d="M125.68,55.38a7.81,7.81,0,1,1-7.82-7.81,7.81,7.81,0,0,1,7.82,7.81"/><path class="a" d="M15.62,79.17a7.81,7.81,0,1,1-7.81-7.81,7.81,7.81,0,0,1,7.81,7.81"/><path class="a" d="M37.63,79.17a7.81,7.81,0,1,1-7.81-7.81,7.81,7.81,0,0,1,7.81,7.81"/><path class="a" d="M59.64,79.17a7.81,7.81,0,1,1-7.81-7.81,7.8,7.8,0,0,1,7.81,7.81"/><path class="a" d="M81.65,79.17a7.81,7.81,0,1,1-7.81-7.81,7.8,7.8,0,0,1,7.81,7.81"/><path class="a" d="M103.67,79.17a7.82,7.82,0,1,1-7.82-7.81,7.81,7.81,0,0,1,7.82,7.81"/><path class="a" d="M125.68,79.17a7.81,7.81,0,1,1-7.82-7.81,7.81,7.81,0,0,1,7.82,7.81"/><path class="a" d="M59.64,103a7.81,7.81,0,1,1-7.81-7.81A7.81,7.81,0,0,1,59.64,103"/><path class="a" d="M81.65,103a7.81,7.81,0,1,1-7.81-7.81A7.81,7.81,0,0,1,81.65,103"/><path class="a" d="M103.67,103a7.82,7.82,0,1,1-7.82-7.81,7.82,7.82,0,0,1,7.82,7.81"/><path class="a" d="M125.68,103a7.81,7.81,0,1,1-7.82-7.81,7.82,7.82,0,0,1,7.82,7.81"/><path class="a" d="M59.64,126.74a7.81,7.81,0,1,1-7.81-7.8,7.81,7.81,0,0,1,7.81,7.8"/><path class="a" d="M81.65,126.74a7.81,7.81,0,1,1-7.81-7.8,7.81,7.81,0,0,1,7.81,7.8"/><path class="a" d="M103.67,126.74a7.82,7.82,0,1,1-7.82-7.8,7.82,7.82,0,0,1,7.82,7.8"/><path class="a" d="M125.68,126.74a7.81,7.81,0,1,1-7.82-7.8,7.82,7.82,0,0,1,7.82,7.8"/></svg>