<svg xmlns="http://www.w3.org/2000/svg" viewBox="0 0 754.04 148.54"><defs><style>.a,.b{fill:#fff;}.b{fill-rule:evenodd;}</style></defs><path class="a" d="M539,36.37a9.48,9.48,0,0,1-4,1.68,26.54,26.54,0,0,1-5.16.47,16.79,16.79,0,0,1-6.21-1.13,13.57,13.57,0,0,1-5-3.44A16.59,16.59,0,0,1,515.16,28a25.93,25.93,0,0,1-1.27-8.55,24.3,24.3,0,0,1,1.4-8.76A16.78,16.78,0,0,1,519,4.82a14.33,14.33,0,0,1,5.13-3.35,16.63,16.63,0,0,1,5.79-1,31.41,31.41,0,0,1,5.16.34,16.94,16.94,0,0,1,3.42.92l-1.05,3.9a16.53,16.53,0,0,0-7.21-1.26A12.15,12.15,0,0,0,526,5.1a9.87,9.87,0,0,0-3.77,2.58,13.13,13.13,0,0,0-2.65,4.69,21.84,21.84,0,0,0-1,7.1,21,21,0,0,0,.94,6.63,13.65,13.65,0,0,0,2.61,4.74A10.6,10.6,0,0,0,526,33.68a12.4,12.4,0,0,0,4.87,1,16.25,16.25,0,0,0,4.13-.47A11.63,11.63,0,0,0,538,33Z"/><path class="a" d="M554.42,20.47l1.37,4.69h.26l1.05-4.84,7.06-19.27h4.47l-9.32,24c-.94,2.49-1.78,4.57-2.5,6.23a22.31,22.31,0,0,1-2.18,4.06,7.06,7.06,0,0,1-2.37,2.21,6.64,6.64,0,0,1-3.1.66,10.76,10.76,0,0,1-2.77-.29,7.56,7.56,0,0,1-1.92-.87l1.32-3.63a6.37,6.37,0,0,0,2,.73,9,9,0,0,0,1.63.16,2.92,2.92,0,0,0,2.47-1.5,14.46,14.46,0,0,0,1.74-4.45L540,1.05h5Z"/><path class="a" d="M595.21,21H577.52V37.89h-4.37V1.05h4.37V17.1h17.69v-16h4.36V37.89h-4.36Z"/><path class="a" d="M638.73,44.68h-3l-.79-6.79H608.52V1.05h4.37V34h16.58V1.05h4.37V34h4.89Z"/><path class="a" d="M665.57,20.84H663.1V37.89h-4.37V1.05h4.37V18.21l2.37-.74L677.83,1.05h5.06L670.57,16.89l-2.21,1.74,2.68,2.1,13.48,17.16H679Z"/><path class="a" d="M703.67,33.79a18,18,0,0,1-2.07.21c-.79,0-1.54,0-2.24,0a12.89,12.89,0,0,1-4.66-.84,9.8,9.8,0,0,1-3.79-2.63A12.76,12.76,0,0,1,688.39,26a20.69,20.69,0,0,1-.92-6.56,20.37,20.37,0,0,1,.92-6.39A13.28,13.28,0,0,1,691,8.32a11.45,11.45,0,0,1,4.08-3,13.13,13.13,0,0,1,5.26-1c.45,0,1,0,1.71,0a12.15,12.15,0,0,1,1.6.16V0H708V4.68a10,10,0,0,1,2.24-.31c.86,0,1.57,0,2.13,0a11.72,11.72,0,0,1,4.69.92A10.45,10.45,0,0,1,720.86,8a12.81,12.81,0,0,1,2.5,4.58,21,21,0,0,1,.89,6.4,19.37,19.37,0,0,1-1,6.57,13.9,13.9,0,0,1-2.77,4.74,11.16,11.16,0,0,1-4.05,2.84,12.93,12.93,0,0,1-4.94.95c-.39,0-1,0-1.72-.08a6.62,6.62,0,0,1-1.71-.29V39h-4.37Zm-3.52-3.42h.71l1,0a8.54,8.54,0,0,0,1-.11,7.33,7.33,0,0,0,.87-.18V8.21c-.42-.07-.94-.12-1.55-.16S701,8,700.52,8a7.94,7.94,0,0,0-3.34.71,7.37,7.37,0,0,0-2.72,2.16,10.67,10.67,0,0,0-1.81,3.6,17.16,17.16,0,0,0-.66,5,16.36,16.36,0,0,0,.58,4.55,10.35,10.35,0,0,0,1.66,3.45,7.19,7.19,0,0,0,2.58,2.16A7.48,7.48,0,0,0,700.15,30.37ZM711.78,8c-.49,0-1.12,0-1.89.05a6.61,6.61,0,0,0-1.9.32V30.21a9.16,9.16,0,0,0,1.4.13l1.71,0a8.15,8.15,0,0,0,3.34-.69,7.42,7.42,0,0,0,2.74-2.1A10.53,10.53,0,0,0,719,24a16.62,16.62,0,0,0,.69-5.05,16.78,16.78,0,0,0-.56-4.45A11.13,11.13,0,0,0,717.6,11a7,7,0,0,0-2.5-2.24A7.12,7.12,0,0,0,711.78,8Z"/><path class="a" d="M739.83,20.47l1.37,4.69h.26l1.06-4.84,7.05-19.27H754l-9.31,24q-1.43,3.73-2.5,6.23A22.28,22.28,0,0,1,740,35.29a7,7,0,0,1-2.36,2.21,6.68,6.68,0,0,1-3.11.66,10.62,10.62,0,0,1-2.76-.29,7.47,7.47,0,0,1-1.93-.87l1.32-3.63a6.37,6.37,0,0,0,1.95.73,9,9,0,0,0,1.63.16,2.91,2.91,0,0,0,2.47-1.5A14.46,14.46,0,0,0,739,28.31L725.36,1.05h5Z"/><path class="a" d="M516.42,52h4.37V88.82h-4.37Z"/><path class="a" d="M554.52,55.88H543.05V88.82h-4.37V55.88H527.21V52h27.31Z"/><path class="a" d="M554.15,71.72h12.74v3.89H554.15Z"/><path class="a" d="M586.42,66.19h-7.64c-.1,1.48-.21,3.07-.31,4.77s-.26,3.4-.47,5.1-.5,3.34-.85,4.9a20.65,20.65,0,0,1-1.34,4.13,8.67,8.67,0,0,1-2,2.87A4,4,0,0,1,571,89a12.57,12.57,0,0,1-1.74-.1,4.73,4.73,0,0,1-1.32-.37l.63-3.53a4.1,4.1,0,0,0,1.37.21,2.54,2.54,0,0,0,1.9-.89A8.1,8.1,0,0,0,573.31,81,48.84,48.84,0,0,0,574.36,74q.42-4.42.58-11.53h15.69V88.82h-4.21Z"/><path class="a" d="M615.15,73.25l.16-3.27h-.16L613,73.35,601.15,88.82h-2.42V62.51h4.21V78.56l-.16,3.11H603l2.06-3.27,11.84-15.89h2.47V88.82h-4.21Z"/><path class="a" d="M651.1,95.51h-2.84l-.79-6.69h-20V62.51h4.21V85.14H643.1V62.51h4.21V85.14h3.79Z"/><path class="a" d="M675.52,86.72a12,12,0,0,1-4,2,17.19,17.19,0,0,1-5.08.74,12.85,12.85,0,0,1-5.21-1,9.32,9.32,0,0,1-3.63-2.79,12.11,12.11,0,0,1-2.1-4.34,21.56,21.56,0,0,1-.69-5.68q0-6.73,3-10.27t8.58-3.52a16.77,16.77,0,0,1,3.58.39,8.17,8.17,0,0,1,3.21,1.5,8,8,0,0,1,2.32,3.13,13.58,13.58,0,0,1,.89,5.35,26.11,26.11,0,0,1-.31,3.84H659.2a16.33,16.33,0,0,0,.47,4.1,8,8,0,0,0,1.48,3,6.35,6.35,0,0,0,2.6,1.89,10.33,10.33,0,0,0,3.92.66,10.68,10.68,0,0,0,3.58-.63,7.61,7.61,0,0,0,2.69-1.47Zm-9.06-21.16a7.33,7.33,0,0,0-5,1.63q-1.86,1.64-2.24,5.58h13.06q0-4-1.53-5.6A5.69,5.69,0,0,0,666.46,65.56Z"/><path class="a" d="M699.46,73.25l.16-3.27h-.16l-2.16,3.37L685.46,88.82H683V62.51h4.21V78.56l-.15,3.11h.21l2.05-3.27L701.2,62.51h2.47V88.82h-4.21ZM689.09,51.88a5.47,5.47,0,0,0,1.82,3.37,4.89,4.89,0,0,0,3,.94,4.78,4.78,0,0,0,3-1,5.2,5.2,0,0,0,1.79-3.26l3.16,1a6.81,6.81,0,0,1-2.71,4.69,8.86,8.86,0,0,1-5.34,1.63,11.25,11.25,0,0,1-2.82-.37,8.22,8.22,0,0,1-2.5-1.11,7.08,7.08,0,0,1-1.89-1.89,6.65,6.65,0,0,1-1.05-2.74Z"/><polygon class="a" points="149.75 20.85 147.28 20.85 147.28 37.87 142.92 37.87 142.92 1.09 147.28 1.09 147.28 18.22 149.65 17.48 162 1.09 167.04 1.09 154.75 16.91 152.54 18.64 155.22 20.74 168.67 37.87 163.16 37.87 149.75 20.85"/><path class="a" d="M181.39,34.61a8.15,8.15,0,0,0,2.62-.39,7.2,7.2,0,0,0,2-1,6.14,6.14,0,0,0,1.39-1.34,6,6,0,0,0,.82-1.42V26.1l-1.5-.08c-.51,0-1,0-1.5,0a27.72,27.72,0,0,0-3.18.18,10.1,10.1,0,0,0-2.73.68,4.82,4.82,0,0,0-1.89,1.37,3.36,3.36,0,0,0-.71,2.18,3.89,3.89,0,0,0,1.31,3,4.85,4.85,0,0,0,3.37,1.18m-7.46-21.07a15.38,15.38,0,0,1,4.65-1.79,26.21,26.21,0,0,1,5.54-.57,11,11,0,0,1,4.39.73A6.13,6.13,0,0,1,191,13.83a6.7,6.7,0,0,1,1.16,2.6,14.41,14.41,0,0,1,.29,2.84c0,2.1-.06,4.15-.16,6.15s-.16,3.89-.16,5.67c0,1.3.05,2.53.16,3.68A17,17,0,0,0,192.9,38h-3.1l-1.11-3.68h-.26a9,9,0,0,1-1.18,1.44A7.76,7.76,0,0,1,185.54,37a11.71,11.71,0,0,1-2.31.92,11.42,11.42,0,0,1-3,.36,9.14,9.14,0,0,1-3.13-.52,7.27,7.27,0,0,1-2.49-1.5A7.16,7.16,0,0,1,173,33.93a7.62,7.62,0,0,1-.6-3.1,7.29,7.29,0,0,1,.94-3.86A6.82,6.82,0,0,1,176,24.5a13.09,13.09,0,0,1,4.1-1.32,32.85,32.85,0,0,1,5.28-.39h1.44a10.22,10.22,0,0,1,1.45.11c.1-1.06.16-2,.16-2.84,0-1.93-.39-3.28-1.16-4s-2.17-1.15-4.2-1.15a14.63,14.63,0,0,0-1.92.13c-.68.08-1.39.21-2.1.36a17.52,17.52,0,0,0-2.05.58,10.54,10.54,0,0,0-1.71.76Z"/><path class="a" d="M202.72,26.15V22.74h3.68a5.68,5.68,0,0,0,1.86-.32,6.07,6.07,0,0,0,1.66-.86,4.49,4.49,0,0,0,1.18-1.32,3.1,3.1,0,0,0,.45-1.6,3.07,3.07,0,0,0-1.42-2.89,8.57,8.57,0,0,0-4.26-.84,10.73,10.73,0,0,0-3.75.63,15.29,15.29,0,0,0-2.66,1.21l-1.21-3.26A19.79,19.79,0,0,1,202,11.91a16.86,16.86,0,0,1,5.07-.68q8.73,0,8.72,6.46a6.57,6.57,0,0,1-4.57,6.1V24a6.75,6.75,0,0,1,4.34,2.21,7,7,0,0,1,1.23,4.31,7.14,7.14,0,0,1-.68,3.1,7,7,0,0,1-2,2.47,10.3,10.3,0,0,1-3.44,1.65,17.4,17.4,0,0,1-4.81.61,17.19,17.19,0,0,1-4.44-.48,17.88,17.88,0,0,1-3.18-1.15l1.21-3.47a10.53,10.53,0,0,0,2.91,1,18,18,0,0,0,3.71.37,8.92,8.92,0,0,0,4.89-1.11,3.73,3.73,0,0,0,1.68-3.36,3.42,3.42,0,0,0-1.58-3q-1.58-1.08-5.2-1.08Z"/><path class="a" d="M230.2,34.61a8.22,8.22,0,0,0,2.63-.39,7.34,7.34,0,0,0,2-1,6.35,6.35,0,0,0,1.39-1.34,5.62,5.62,0,0,0,.81-1.42V26.1L235.54,26c-.51,0-1,0-1.5,0a27.47,27.47,0,0,0-3.18.18,10,10,0,0,0-2.73.68,4.93,4.93,0,0,0-1.9,1.37,3.36,3.36,0,0,0-.71,2.18,3.87,3.87,0,0,0,1.32,3,4.82,4.82,0,0,0,3.36,1.18m-7.46-21.07a15.38,15.38,0,0,1,4.65-1.79,26.35,26.35,0,0,1,5.54-.57,10.93,10.93,0,0,1,4.39.73,6,6,0,0,1,2.52,1.92,6.55,6.55,0,0,1,1.16,2.6,14.41,14.41,0,0,1,.29,2.84q0,3.15-.16,6.15c-.1,2-.16,3.89-.16,5.67,0,1.3.06,2.53.16,3.68a17.81,17.81,0,0,0,.58,3.21h-3.1l-1.1-3.68h-.27a8.48,8.48,0,0,1-1.18,1.44A7.32,7.32,0,0,1,234.35,37a10.64,10.64,0,0,1-5.3,1.28,9.06,9.06,0,0,1-3.13-.52,7.22,7.22,0,0,1-2.5-1.5,7,7,0,0,1-1.65-2.34,7.46,7.46,0,0,1-.61-3.1,7.29,7.29,0,0,1,1-3.86,6.73,6.73,0,0,1,2.65-2.47,13.18,13.18,0,0,1,4.1-1.32,33,33,0,0,1,5.28-.39h1.45a10.19,10.19,0,0,1,1.44.11,27.6,27.6,0,0,0,.16-2.84c0-1.93-.38-3.28-1.16-4s-2.17-1.15-4.2-1.15a14.74,14.74,0,0,0-1.92.13c-.68.08-1.38.21-2.1.36a17.52,17.52,0,0,0-2.05.58,10.54,10.54,0,0,0-1.71.76Z"/><polygon class="a" points="265.09 26.26 253.22 26.26 253.22 37.87 249.01 37.87 249.01 11.6 253.22 11.6 253.22 22.58 265.09 22.58 265.09 11.6 269.3 11.6 269.3 37.87 265.09 37.87 265.09 26.26"/><path class="a" d="M295.1,36.14a11.49,11.49,0,0,1-3.73,1.76,16.83,16.83,0,0,1-4.52.6,12.17,12.17,0,0,1-5.15-1,8.88,8.88,0,0,1-3.45-2.78,11.89,11.89,0,0,1-1.94-4.37,24.59,24.59,0,0,1-.61-5.65q0-6.66,2.95-10.22T287.11,11a20.09,20.09,0,0,1,4.28.39,12.82,12.82,0,0,1,3.18,1.13l-1.21,3.63A11.05,11.05,0,0,0,290.68,15a12.25,12.25,0,0,0-3.15-.39q-7.47,0-7.46,10.08a18,18,0,0,0,.39,3.81,9.39,9.39,0,0,0,1.31,3.21A6.92,6.92,0,0,0,284.19,34a7.51,7.51,0,0,0,3.71.84,9.49,9.49,0,0,0,3.39-.57,9.71,9.71,0,0,0,2.44-1.32Z"/><polygon class="a" points="307.29 26.05 304.87 26.05 304.87 37.87 300.66 37.87 300.66 11.6 304.87 11.6 304.87 23.47 307.13 22.74 315.54 11.6 320.11 11.6 311.96 22.16 309.76 23.89 312.49 26 321.26 37.87 316.06 37.87 307.29 26.05"/><polygon class="a" points="341.97 22.32 342.12 19.06 341.97 19.06 339.81 22.42 327.99 37.87 325.57 37.87 325.57 11.6 329.77 11.6 329.77 27.63 329.62 30.73 329.83 30.73 331.88 27.47 343.7 11.6 346.17 11.6 346.17 37.87 341.97 37.87 341.97 22.32"/><path class="a" d="M360.09,1a5.42,5.42,0,0,0,1.82,3.36,4.81,4.81,0,0,0,3,1,4.77,4.77,0,0,0,3-1A5.25,5.25,0,0,0,369.66,1l3.15,1a6.81,6.81,0,0,1-2.71,4.68,8.74,8.74,0,0,1-5.33,1.63A10.79,10.79,0,0,1,362,8a8.2,8.2,0,0,1-2.5-1.1A7.08,7.08,0,0,1,357.57,5a6.85,6.85,0,0,1-1.05-2.74Zm10.36,21.34.15-3.26h-.15l-2.16,3.36L356.47,37.87h-2.42V11.6h4.2v16l-.15,3.1h.21l2.05-3.26L372.18,11.6h2.47V37.87h-4.2Z"/><path class="a" d="M151.75,85c.42,0,.84,0,1.26,0a13.13,13.13,0,0,0,1.37-.21V64.8c-.42-.07-.82-.12-1.18-.16s-.82,0-1.34,0A5.93,5.93,0,0,0,146.79,67c-1.21,1.63-1.82,4.17-1.82,7.64a19.6,19.6,0,0,0,.4,4.1,10.42,10.42,0,0,0,1.23,3.29,6.18,6.18,0,0,0,2.13,2.15,5.79,5.79,0,0,0,3,.76m8.88-20.39c-.42,0-.79,0-1.13,0a5.35,5.35,0,0,0-1.23.24v20a7.8,7.8,0,0,0,1.18.14l1.45,0A5.58,5.58,0,0,0,166,82.2q1.69-2.79,1.7-8a13.43,13.43,0,0,0-1.55-7Q164.58,64.59,160.63,64.59ZM154.33,88a6.9,6.9,0,0,1-1.87.37c-.65,0-1.23,0-1.76,0a8.73,8.73,0,0,1-7.36-3.36q-2.57-3.36-2.57-10.41,0-6.72,2.84-10.14t8.19-3.42a13.15,13.15,0,0,1,2.53.21V51h4V61.39a15.35,15.35,0,0,1,1.68-.21c.49,0,1-.06,1.42-.06q5.21,0,7.83,3t2.63,10a23.25,23.25,0,0,1-.71,6,13,13,0,0,1-2.08,4.49,9.34,9.34,0,0,1-3.33,2.84,9.9,9.9,0,0,1-4.55,1c-.31,0-.78,0-1.39-.08a5.86,5.86,0,0,1-1.5-.29V98.33h-4Z"/><path class="a" d="M188.17,64.59a7.31,7.31,0,0,0-5,1.63c-1.24,1.09-2,2.94-2.23,5.57h13c0-2.66-.51-4.53-1.52-5.59a5.68,5.68,0,0,0-4.31-1.61m9,21.13a12,12,0,0,1-4,2,16.9,16.9,0,0,1-5.07.74,12.85,12.85,0,0,1-5.21-1,9.22,9.22,0,0,1-3.62-2.79,11.9,11.9,0,0,1-2.1-4.33,21.56,21.56,0,0,1-.69-5.68q0-6.72,3-10.25t8.56-3.52a16.17,16.17,0,0,1,3.58.4,7.6,7.6,0,0,1,5.52,4.62,13.5,13.5,0,0,1,.89,5.34,26.09,26.09,0,0,1-.32,3.83H180.91a15.86,15.86,0,0,0,.48,4.1,7.82,7.82,0,0,0,1.47,3,6.31,6.31,0,0,0,2.6,1.9,10.5,10.5,0,0,0,3.92.65,10.67,10.67,0,0,0,3.57-.63,7.65,7.65,0,0,0,2.68-1.47Z"/><path class="a" d="M218.54,84.14V65.22h-7.88c-.07,1.47-.2,3.08-.37,4.81s-.41,3.47-.71,5.2a44.49,44.49,0,0,1-1.13,4.92,21.53,21.53,0,0,1-1.58,4Zm8,10.35h-2.84L223,87.82H203.19l-.78,6.67h-2.84V84.14h3.1a13,13,0,0,0,1.1-2.07,24.21,24.21,0,0,0,1.34-4.21,60,60,0,0,0,1.16-6.72,94.73,94.73,0,0,0,.6-9.6h15.87v22.6h3.84Z"/><path class="a" d="M241.71,64.59a7.28,7.28,0,0,0-5,1.63c-1.25,1.09-2,2.94-2.24,5.57h13c0-2.66-.5-4.53-1.52-5.59a5.66,5.66,0,0,0-4.31-1.61m9,21.13a11.82,11.82,0,0,1-4,2,16.8,16.8,0,0,1-5.07.74,12.77,12.77,0,0,1-5.2-1,9.32,9.32,0,0,1-3.63-2.79,12.23,12.23,0,0,1-2.1-4.33,21.58,21.58,0,0,1-.68-5.68q0-6.72,3-10.25t8.57-3.52a16.08,16.08,0,0,1,3.57.4,7.56,7.56,0,0,1,5.52,4.62,13.32,13.32,0,0,1,.89,5.34,26,26,0,0,1-.31,3.83H234.46a16.33,16.33,0,0,0,.47,4.1,8.12,8.12,0,0,0,1.47,3,6.44,6.44,0,0,0,2.6,1.9,10.54,10.54,0,0,0,3.92.65,10.67,10.67,0,0,0,3.57-.63,7.56,7.56,0,0,0,2.68-1.47Z"/><path class="a" d="M268.67,64.59A6.13,6.13,0,0,0,264.44,66a7.74,7.74,0,0,0-2.18,4.24v13a6.9,6.9,0,0,0,2.15,1.13,10.74,10.74,0,0,0,3.21.39,6.94,6.94,0,0,0,5.75-2.7c1.42-1.81,2.13-4.46,2.13-8a18.82,18.82,0,0,0-.37-3.91,8.64,8.64,0,0,0-1.18-3,5.66,5.66,0,0,0-2.1-1.91,6.68,6.68,0,0,0-3.18-.69m-10.62-3.05h2.89l.79,3.16h.21a8,8,0,0,1,3.13-2.81,9.55,9.55,0,0,1,4.39-1c3.5,0,6.11,1,7.83,3.1s2.57,5.45,2.57,10.15a19.1,19.1,0,0,1-.87,6,12.83,12.83,0,0,1-2.44,4.49,10.59,10.59,0,0,1-3.81,2.84,12,12,0,0,1-5,1,15.46,15.46,0,0,1-3.07-.24,11.6,11.6,0,0,1-2.44-.81V98.33h-4.21Z"/><path class="a" d="M293.31,84.56a8.22,8.22,0,0,0,2.63-.39,7.79,7.79,0,0,0,2-1,6.35,6.35,0,0,0,1.39-1.34,5.62,5.62,0,0,0,.81-1.42V76.05c-.49,0-1-.06-1.5-.08l-1.49,0a27.44,27.44,0,0,0-3.18.19,9.92,9.92,0,0,0-2.73.68,4.83,4.83,0,0,0-1.9,1.37,3.34,3.34,0,0,0-.71,2.18,3.88,3.88,0,0,0,1.32,3,4.8,4.8,0,0,0,3.36,1.18m-7.46-21.07a15.13,15.13,0,0,1,4.65-1.79,26.35,26.35,0,0,1,5.54-.58,10.92,10.92,0,0,1,4.39.74A6.06,6.06,0,0,1,303,63.78a6.49,6.49,0,0,1,1.16,2.6,14.41,14.41,0,0,1,.29,2.84q0,3.15-.16,6.15c-.1,2-.16,3.88-.16,5.67,0,1.3.06,2.52.16,3.68a18,18,0,0,0,.58,3.21h-3.1l-1.1-3.68h-.27a8.48,8.48,0,0,1-1.18,1.44A7.29,7.29,0,0,1,297.46,87a10.21,10.21,0,0,1-2.31.92,11,11,0,0,1-3,.37,8.81,8.81,0,0,1-3.12-.53,6.94,6.94,0,0,1-4.15-3.83,7.49,7.49,0,0,1-.61-3.1,7.29,7.29,0,0,1,1-3.86,6.73,6.73,0,0,1,2.65-2.47,12.92,12.92,0,0,1,4.1-1.32,33,33,0,0,1,5.28-.39h1.45a10.16,10.16,0,0,1,1.44.1A27.27,27.27,0,0,0,300.3,70c0-1.93-.39-3.28-1.16-4.05s-2.17-1.16-4.2-1.16a16.58,16.58,0,0,0-1.92.13c-.68.09-1.38.21-2.1.37a17.52,17.52,0,0,0-2.05.58,10.54,10.54,0,0,0-1.71.76Z"/><path class="a" d="M326.26,65.22h-7.62c-.11,1.47-.21,3.06-.32,4.76s-.26,3.4-.47,5.1-.49,3.33-.84,4.88a21.31,21.31,0,0,1-1.34,4.13,8.52,8.52,0,0,1-2,2.86A4,4,0,0,1,310.86,88a12.41,12.41,0,0,1-1.73-.1,5.1,5.1,0,0,1-1.32-.37l.63-3.52a4.32,4.32,0,0,0,1.37.21,2.53,2.53,0,0,0,1.89-.9A8,8,0,0,0,313.17,80a48.19,48.19,0,0,0,1.05-6.91q.42-4.41.58-11.51h15.66V87.82h-4.2Z"/><path class="a" d="M342.55,71.58c.84-.14,1.64-.23,2.41-.29s1.51-.08,2.21-.08a15.39,15.39,0,0,1,4.62.61,8.35,8.35,0,0,1,3.08,1.65,6.09,6.09,0,0,1,1.71,2.5A8.92,8.92,0,0,1,357.1,79q0,4.78-2.86,6.94t-8.91,2.16q-3.36,0-7-.32V61.54h4.21Zm0,12.56a23.21,23.21,0,0,0,3.73.32,7.63,7.63,0,0,0,4.88-1.29,4.86,4.86,0,0,0,.06-7.12,7,7,0,0,0-4.79-1.37c-.59,0-1.24,0-1.94.06a7.8,7.8,0,0,0-1.94.31Z"/><polygon class="a" points="378.59 76.21 366.71 76.21 366.71 87.82 362.51 87.82 362.51 61.54 366.71 61.54 366.71 72.53 378.59 72.53 378.59 61.54 382.8 61.54 382.8 87.82 378.59 87.82 378.59 76.21"/><path class="a" d="M413.06,61.54h4.21V87.82h-4.21Zm-18.18,10c.84-.14,1.65-.23,2.42-.29s1.5-.08,2.2-.08a14.48,14.48,0,0,1,4.5.61,7.56,7.56,0,0,1,2.91,1.65,5.65,5.65,0,0,1,1.55,2.5,10.27,10.27,0,0,1,.45,3.07q0,4.78-2.65,6.94t-8.6,2.16q-3.36,0-7-.32V61.54h4.2Zm0,12.56a23.4,23.4,0,0,0,3.73.32c2.21,0,3.75-.43,4.63-1.29a4.91,4.91,0,0,0,1.31-3.65,4.86,4.86,0,0,0-1.29-3.47c-.86-.91-2.35-1.37-4.49-1.37-.6,0-1.24,0-1.95.06a7.87,7.87,0,0,0-1.94.31Z"/><path class="a" d="M431.19,50.93A5.41,5.41,0,0,0,433,54.29a4.9,4.9,0,0,0,3,1,4.82,4.82,0,0,0,3-1A5.27,5.27,0,0,0,440.75,51l3.16,1a6.84,6.84,0,0,1-2.71,4.68,8.85,8.85,0,0,1-5.33,1.63,11.12,11.12,0,0,1-2.81-.37,8.11,8.11,0,0,1-2.5-1.11,6.8,6.8,0,0,1-1.89-1.89,6.61,6.61,0,0,1-1.05-2.73Zm10.35,21.33L441.7,69h-.16l-2.15,3.36L427.56,87.82h-2.41V61.54h4.2v16l-.16,3.1h.21l2.05-3.25,11.83-15.88h2.47V87.82h-4.21Z"/><path class="a" d="M150.23,128.52l1.47,5H152l1.16-5.09,5.1-17h4.25l-7.78,23.6c-.59,1.71-1.18,3.38-1.76,5a28.42,28.42,0,0,1-1.91,4.31,11,11,0,0,1-2.37,3,4.56,4.56,0,0,1-3.05,1.13,7.86,7.86,0,0,1-3.1-.52l.74-3.63a3.72,3.72,0,0,0,1.31.26,3.83,3.83,0,0,0,2.84-1.55,12.72,12.72,0,0,0,2.26-5.33l-10.56-26.28h4.83Z"/><polygon class="a" points="182.86 126.15 170.98 126.15 170.98 137.77 166.78 137.77 166.78 111.49 170.98 111.49 170.98 122.47 182.86 122.47 182.86 111.49 187.06 111.49 187.06 137.77 182.86 137.77 182.86 126.15"/><polygon class="a" points="211.34 122.21 211.5 118.95 211.34 118.95 209.18 122.32 197.36 137.77 194.94 137.77 194.94 111.49 199.15 111.49 199.15 127.52 198.99 130.62 199.2 130.62 201.25 127.36 213.07 111.49 215.54 111.49 215.54 137.77 211.34 137.77 211.34 122.21"/><path class="a" d="M232.78,122.58a5.52,5.52,0,0,0,1.84-.32,5.36,5.36,0,0,0,1.6-.86,4.69,4.69,0,0,0,1.15-1.29,3,3,0,0,0,.45-1.58,3.19,3.19,0,0,0-1.26-2.91,8.54,8.54,0,0,0-4.41-.82c-1.13,0-2,0-2.66,0l-1.86.11v7.62Zm-5.15,11.67c.66.07,1.32.12,2,.15s1.41.06,2.28.06a10.72,10.72,0,0,0,5.23-1,3.64,3.64,0,0,0,1.71-3.42,3.77,3.77,0,0,0-1.45-3.07q-1.44-1.18-5.12-1.18h-4.62Zm-4.21-22.71c1.23-.07,2.52-.15,3.86-.26s3-.16,5-.16q5.2,0,7.47,1.61a5.58,5.58,0,0,1,2.26,4.86,6.84,6.84,0,0,1-1.08,3.6,6.37,6.37,0,0,1-3.55,2.6V124a7,7,0,0,1,4.36,2.15,6.56,6.56,0,0,1,1.26,4.21q0,4.09-2.94,5.94c-2,1.22-4.9,1.84-8.83,1.84-1.47,0-2.84,0-4.1-.14s-2.5-.18-3.73-.28Z"/><path class="a" d="M259.57,114.54a7.25,7.25,0,0,0-5,1.63c-1.25,1.08-2,2.94-2.24,5.57h13q0-4-1.53-5.6a5.64,5.64,0,0,0-4.31-1.6m9,21.13a11.86,11.86,0,0,1-4,2,17.24,17.24,0,0,1-5.08.74,13,13,0,0,1-5.2-1,9.22,9.22,0,0,1-3.62-2.79,12.07,12.07,0,0,1-2.11-4.33,22.06,22.06,0,0,1-.68-5.68q0-6.73,3-10.25t8.56-3.52a16.24,16.24,0,0,1,3.58.4,7.51,7.51,0,0,1,5.51,4.62,13.29,13.29,0,0,1,.9,5.33,26.11,26.11,0,0,1-.32,3.84H252.32a15.86,15.86,0,0,0,.48,4.1,7.82,7.82,0,0,0,1.47,3,6.29,6.29,0,0,0,2.6,1.89,10.28,10.28,0,0,0,3.91.66,10.72,10.72,0,0,0,3.58-.63,7.65,7.65,0,0,0,2.68-1.47Z"/><path class="a" d="M286.53,114.54a6.08,6.08,0,0,0-4.23,1.39,7.81,7.81,0,0,0-2.18,4.23v13a7.23,7.23,0,0,0,2.15,1.13,10.79,10.79,0,0,0,3.21.39,6.9,6.9,0,0,0,5.75-2.71q2.13-2.7,2.13-8a18.82,18.82,0,0,0-.37-3.91,8.48,8.48,0,0,0-1.18-3,5.69,5.69,0,0,0-2.1-1.92,6.8,6.8,0,0,0-3.18-.68m-10.62-3.05h2.9l.78,3.15h.21a8.13,8.13,0,0,1,3.13-2.81,9.68,9.68,0,0,1,4.39-1q5.25,0,7.83,3.1t2.57,10.14a19.42,19.42,0,0,1-.86,6,13,13,0,0,1-2.45,4.49,10.71,10.71,0,0,1-3.81,2.84,12,12,0,0,1-5,1,15.57,15.57,0,0,1-3.08-.24,13.12,13.12,0,0,1-2.44-.81v10.93h-4.21Z"/><path class="a" d="M322.05,136a11.4,11.4,0,0,1-3.73,1.76,16.39,16.39,0,0,1-4.52.61,12.36,12.36,0,0,1-5.15-1,8.79,8.79,0,0,1-3.44-2.79,11.84,11.84,0,0,1-1.94-4.36,24.1,24.1,0,0,1-.61-5.65q0-6.67,2.94-10.22t8.46-3.55a19.49,19.49,0,0,1,4.29.4,12.71,12.71,0,0,1,3.18,1.13L320.32,116a12.11,12.11,0,0,0-2.68-1.08,12.25,12.25,0,0,0-3.15-.39q-7.47,0-7.47,10.09a17.45,17.45,0,0,0,.4,3.81,9.26,9.26,0,0,0,1.31,3.2,6.86,6.86,0,0,0,2.42,2.24,7.47,7.47,0,0,0,3.7.84,9.27,9.27,0,0,0,3.39-.58,9.48,9.48,0,0,0,2.45-1.31Z"/><polygon class="a" points="344.02 122.21 344.17 118.95 344.02 118.95 341.86 122.32 330.04 137.77 327.62 137.77 327.62 111.49 331.82 111.49 331.82 127.52 331.67 130.62 331.88 130.62 333.93 127.36 345.75 111.49 348.22 111.49 348.22 137.77 344.02 137.77 344.02 122.21"/><polygon class="a" points="372.86 115.17 364.61 115.17 364.61 137.77 360.41 137.77 360.41 115.17 352.16 115.17 352.16 111.49 372.86 111.49 372.86 115.17"/><path class="a" d="M386.1,114.54a7.25,7.25,0,0,0-5,1.63c-1.25,1.08-2,2.94-2.24,5.57h13q0-4-1.53-5.6a5.64,5.64,0,0,0-4.31-1.6m9,21.13a11.82,11.82,0,0,1-4,2,17.12,17.12,0,0,1-5.07.74,13,13,0,0,1-5.2-1,9.32,9.32,0,0,1-3.63-2.79,12.23,12.23,0,0,1-2.1-4.33,22.06,22.06,0,0,1-.68-5.68q0-6.73,3-10.25t8.57-3.52a16.08,16.08,0,0,1,3.57.4,8,8,0,0,1,3.21,1.49,7.84,7.84,0,0,1,2.31,3.13,13.3,13.3,0,0,1,.89,5.33,26,26,0,0,1-.31,3.84H378.85a16.33,16.33,0,0,0,.47,4.1,8,8,0,0,0,1.48,3,6.29,6.29,0,0,0,2.6,1.89,10.28,10.28,0,0,0,3.91.66,10.77,10.77,0,0,0,3.58-.63,7.65,7.65,0,0,0,2.68-1.47Z"/><polygon class="a" points="419.21 115.17 410.96 115.17 410.96 137.77 406.75 137.77 406.75 115.17 398.5 115.17 398.5 111.49 419.21 111.49 419.21 115.17"/><rect class="a" x="480.24" y="0.98" width="3.31" height="145.13"/><path class="a" d="M3,3.3H1v-2h7.7v2h-2V16.79h2v2H1v-2H3Z"/><path class="a" d="M25.58,4.55H20V18.79h-3.7V4.55H10.8V1.3H25.58Z"/><path class="a" d="M40.09,18.79h-12V1.3h3.69V15.54h8.35Z"/><path class="a" d="M47.2,11.4h-1v7.39h-3.7V1.3h3.7V9l.87-.37L52.34,1.3h4.22L51,8.63l-1.45.94,1.5,1,6.34,8.22H52.84Z"/><path class="a" d="M59.84,1.48c.75-.13,1.58-.24,2.5-.31s1.83-.11,2.74-.11a19.35,19.35,0,0,1,2.83.21,7.3,7.3,0,0,1,2.56.85,5.24,5.24,0,0,1,1.86,1.77,5.56,5.56,0,0,1,.72,3,5.92,5.92,0,0,1-.62,2.81,5.34,5.34,0,0,1-1.66,1.89,7.35,7.35,0,0,1-2.36,1.06,11.28,11.28,0,0,1-2.73.34h-.42l-.64,0c-.22,0-.44,0-.64,0l-.45,0v5.89H59.84ZM65.33,4.3c-.35,0-.68,0-1,0a4.67,4.67,0,0,0-.79.1V9.62a1.65,1.65,0,0,0,.33.05l.47,0,.47,0h.33a11.64,11.64,0,0,0,1.45-.1,3.57,3.57,0,0,0,1.29-.43,2.56,2.56,0,0,0,.91-.88,2.88,2.88,0,0,0,.35-1.51,2.24,2.24,0,0,0-.33-1.29,2.11,2.11,0,0,0-.86-.76,3.72,3.72,0,0,0-1.22-.38A10.7,10.7,0,0,0,65.33,4.3Z"/><path class="a" d="M75.69,1.3H87V4.55H79.39V8.63h7v3.24h-7v6.92h-3.7Z"/><path class="a" d="M100.2,1.3h3.49V12.52a8.22,8.22,0,0,1-.48,3,5.25,5.25,0,0,1-3.5,3.23,9,9,0,0,1-2.71.39,8.22,8.22,0,0,1-5.37-1.53A5.68,5.68,0,0,1,89.78,13V1.3h3.7v11a3.67,3.67,0,0,0,.87,2.79,3.79,3.79,0,0,0,2.6.78A3.24,3.24,0,0,0,99.4,15a3.9,3.9,0,0,0,.8-2.74Z"/><path class="a" d="M52.42,147.32c-30,0-52.42-23.15-52.42-43.84V21.67H104.84v81.69c.12,9.06-4.44,18.89-12.5,27.07A56.55,56.55,0,0,1,52.42,147.32ZM2.55,24.22v79.14c0,19.61,21.32,41.41,49.87,41.41a53.92,53.92,0,0,0,38.1-16.13c7.6-7.69,11.88-16.86,11.77-25.14V24.22Z"/><path class="b" d="M65,128.69l.09-.91h0l-.37.78L63.53,130l-.53.41.68-.08H65Zm2.5,2.78H66.28v2.1H65v-2.1H61.7v-.8L65.13,126h1.15v4.39h1.19Zm-12.41-1.7a5.57,5.57,0,0,0,.29,2,1,1,0,0,0,1.87.06,5.25,5.25,0,0,0,.31-2.11,5.49,5.49,0,0,0-.29-2,1,1,0,0,0-1.89,0A5.3,5.3,0,0,0,55.06,129.77Zm-1.4,0a5.15,5.15,0,0,1,.68-2.94,2.23,2.23,0,0,1,2-1,2.19,2.19,0,0,1,2,.94,5.32,5.32,0,0,1,.65,3,5.27,5.27,0,0,1-.68,3,2.28,2.28,0,0,1-2,1,2.17,2.17,0,0,1-2-1A5.59,5.59,0,0,1,53.66,129.77Zm-6.52-1.89a1,1,0,0,0,.37.8,2.19,2.19,0,0,0,.37.26c.14.09.29.16.43.24A1.58,1.58,0,0,0,49,128a.85.85,0,0,0-.27-.69.9.9,0,0,0-.63-.23.88.88,0,0,0-.7.25A.82.82,0,0,0,47.14,127.88Zm2,3.7a1,1,0,0,0-.12-.45,1.79,1.79,0,0,0-.31-.37,2.68,2.68,0,0,0-.42-.31,4.53,4.53,0,0,0-.48-.27,1.65,1.65,0,0,0-.69.63,1.34,1.34,0,0,0-.19.67,1.05,1.05,0,0,0,.3.75,1.15,1.15,0,0,0,.82.31,1.19,1.19,0,0,0,.78-.24A.86.86,0,0,0,49.1,131.58Zm-3.48.14a2,2,0,0,1,.1-.67,2,2,0,0,1,.27-.55,3.39,3.39,0,0,1,.42-.43,4.72,4.72,0,0,1,.52-.35,2.84,2.84,0,0,1-.83-.78,1.86,1.86,0,0,1-.3-1.08,2.06,2.06,0,0,1,.16-.79,1.66,1.66,0,0,1,.45-.63,1.9,1.9,0,0,1,.72-.42,2.63,2.63,0,0,1,.95-.15A3,3,0,0,1,49,126a1.92,1.92,0,0,1,.69.38,1.46,1.46,0,0,1,.44.57,1.79,1.79,0,0,1,.15.75,1.92,1.92,0,0,1-.28,1.07,2.8,2.8,0,0,1-.83.81,3.28,3.28,0,0,1,1,.84,1.9,1.9,0,0,1,.33,1.16,2.07,2.07,0,0,1-.18.88,2.19,2.19,0,0,1-.49.67,2.5,2.5,0,0,1-.78.44,3.22,3.22,0,0,1-1,.16,3.31,3.31,0,0,1-1-.14,2.21,2.21,0,0,1-.74-.41,1.58,1.58,0,0,1-.47-.62A1.9,1.9,0,0,1,45.62,131.72Zm-7.84.66h1.51v-4.26l.15-.73-.51.63-1,.66-.59-.81,2.46-2h.79v6.5h1.47v1.19H37.78Zm45-43.18c7.52-3,14.5-8.15,16.1-20.84-1.49,6.26-4.74,9.73-8.83,11.65-4.36,2.06-9.68,2.35-14.77,2.4A14.75,14.75,0,0,1,82.81,89.2ZM43.67,35.38h2.81v.67h.88v2.18a1.57,1.57,0,0,0-1,1.44,1.55,1.55,0,0,0,1.08,1.48h.05v0H48a1.56,1.56,0,0,0,1.56-1.57v0h0v-.06a.06.06,0,0,1,0,0h0v0h0a.34.34,0,0,1,0-.1h0v-.11h0v0h0a1.38,1.38,0,0,0-.38-.62h0l0,0,0,0h0v0h0l0,0,0,0h0l0,0h0l0,0h0l0,0h0l-.06,0-.06,0h-.06v-.41c0-1.28,1.12-3,2.41-3l2.39-.07L50,43.7l-9.75,0-3.4-8.92,2.26,0c1.29,0,2.43,1.73,2.43,3v.41a1.6,1.6,0,0,0-.74.69h0v0h0l0,0h0v.1h0v0h0a1.06,1.06,0,0,0-.06.19s0,.1,0,.15h0v.08h0v0h0v0a1.56,1.56,0,0,0,1.55,1.57h.42a1.56,1.56,0,0,0,.18-3V36.05h.88ZM36.1,50.85a5.56,5.56,0,0,1,.83,1.43c4.64.83,13.25,6.18,10.37-1.43Zm.5,1.73c-3.18-1.8-4.55.8-7.68,1.46-3.47.71-4.39-2-5.86-4.39,2.44.5,2.58,1.64,5.76-.53,2.35-1.6,5.31-.54,7,1.44l-1.92-5.2c5.73,0,12.2-.8,17.87,0l.72.12a13.1,13.1,0,0,1,10.64,13,16.85,16.85,0,0,1-6.78,13V72c5.38-1.24,11.54-5.74,12.09-8.28a12.57,12.57,0,0,1-2.66-1.52,7,7,0,0,1-2.51-6.81,6,6,0,0,1,3.07-4.31,8.88,8.88,0,0,1,3.13-1l28.34-4c.12,1,.22,1.94.26,2.91a31.41,31.41,0,0,1-29.9,32.86c-5.92.29-13.57-3-16.26-8.6l-.42.08a19.05,19.05,0,0,0-2.89.52c-.9,3.76,6.82,6.69,15.75,8.13L63,84.12a17.8,17.8,0,1,1-12.42,17,18.13,18.13,0,0,1,.24-3l.61.09,10.76.73a5.85,5.85,0,0,0-.84,3,5.77,5.77,0,1,0,5.92-5.77l0-.05-.71.08-.21,0L57,97.33a55,55,0,0,1-10.55.83L33.63,115.67,32,111.42c-9.08-.76-5.94,3.43-3.91,5.15a.94.94,0,0,1,0,1,6.63,6.63,0,0,1-6.24-6.42,6.46,6.46,0,0,1,12-3.25l5.83-18.37h-.93l-3.52,5.06a21.38,21.38,0,0,1-4.71-7.68l-9.85-12.2a6.53,6.53,0,0,1-1.84,2.41l-2-5.21c-4.35-.21-7,.85-4.78,4.16h.94L13,74.47h2.73l-.44,5.72v0h0v.1H13.39V80l-.14-1.84c-2.48-.88-4.86-2.85-4.86-6a6.78,6.78,0,0,1,4-5.9L11.09,49.47,8,45.6H13.2a10.11,10.11,0,0,1,1.73-6.35,4.56,4.56,0,0,0-3.22,2.51c-.68-3.68,2.41-8.42,6.62-7.71s3.84-.5,6.05-2.17a29,29,0,0,1-.49,3.94c4.36.47,4.17-1.1,7-3.2-.5,4.32,0,8.69-5.35,9.93-4.83,1.13-8.43-1.7-11.75,3.05h6.88l-3,3.86L16.36,65.85a6.63,6.63,0,0,1,2.77,1.44L27,72,28.7,78.4h.81A21.08,21.08,0,0,1,50,59l-.43-1.06L38.65,58Z"/></svg>