<svg xmlns="http://www.w3.org/2000/svg" viewBox="0 0 194.7 152.9"><defs><style>.a{fill:#a5a6a6;}.b{fill:#cecfcd;}</style></defs><path class="a" d="M24.93,83.21,69.69,38.46l44.75,44.75L69.69,128,24.93,83.21m-6,0L69.69,134l50.76-50.76L69.69,32.45,18.92,83.21Z"/><path class="b" d="M63.58,69.69,125,8.25l61.44,61.44L125,131.12,63.58,69.69m-8.26,0L125,139.38,194.7,69.69,125,0,55.32,69.69Z"/><path class="a" d="M8.25,83.21,69.69,21.77l61.43,61.44L69.69,144.65,8.25,83.21M0,83.21,69.69,152.9l69.69-69.69L69.69,13.52,0,83.21Z"/><path class="b" d="M80.26,69.69,125,24.93l44.76,44.76L125,114.44,80.26,69.69m-6,0L125,120.45l50.77-50.76L125,18.92,74.25,69.69Z"/></svg>